<?xml version="1.0" encoding="UTF-8" standalone="no"?>
<svg
   height="405"
   width="405"
   viewBox="-54.2766 -40.1485 158.75905 121.95107"
   version="1.1"
   id="svg6"
   sodipodi:docname="SQLite-Logo-square.svg"
   inkscape:version="1.4.2 (f4327f4, 2025-05-13)"
   xmlns:inkscape="http://www.inkscape.org/namespaces/inkscape"
   xmlns:sodipodi="http://sodipodi.sourceforge.net/DTD/sodipodi-0.dtd"
   xmlns:xlink="http://www.w3.org/1999/xlink"
   xmlns="http://www.w3.org/2000/svg"
   xmlns:svg="http://www.w3.org/2000/svg">
  <sodipodi:namedview
     id="namedview6"
     pagecolor="#ffffff"
     bordercolor="#000000"
     borderopacity="0.25"
     inkscape:showpageshadow="2"
     inkscape:pageopacity="0.0"
     inkscape:pagecheckerboard="true"
     inkscape:deskcolor="#d1d1d1"
     inkscape:zoom="1.39625"
     inkscape:cx="323.72426"
     inkscape:cy="10.38496"
     inkscape:window-width="2256"
     inkscape:window-height="1398"
     inkscape:window-x="-11"
     inkscape:window-y="-11"
     inkscape:window-maximized="1"
     inkscape:current-layer="svg6" />
  <defs
     id="defs3">
    <linearGradient
       spreadMethod="pad"
       gradientTransform="matrix(0,-91.8907,-91.8907,0,85.88,161.434)"
       gradientUnits="userSpaceOnUse"
       id="a"
       y2="0"
       x2="1"
       y1="0"
       x1="0">
      <stop
         offset="0"
         stop-color="#97d9f6"
         id="stop1" />
      <stop
         offset=".92"
         stop-color="#0f80cc"
         id="stop2" />
      <stop
         offset="1"
         stop-color="#0f80cc"
         id="stop3" />
    </linearGradient>
    <linearGradient
       spreadMethod="pad"
       gradientTransform="matrix(0,11.48634,-11.48634,0,-93.151348,134.21559)"
       gradientUnits="userSpaceOnUse"
       xlink:href="#a"
       id="b"
       y2="-9.1079998"
       x2="-6.7410002"
       y1="-9.1079998"
       x1="-15.615" />
  </defs>
  <path
     d="m 85.219652,21.246596 c -4.822,0 -8.744,1.427 -11.75,4.281 -3.006,2.856 -4.531,6.600001 -4.531,11.188001 0,2.377 0.379,4.545 1.125,6.53 0.746,1.991 1.907,3.835 3.469,5.5 1.561,1.668 4.686,3.933 9.344,6.813 5.715,3.49 9.455,6.32 11.25,8.531 1.796,2.21 2.687,4.525 2.687,6.938 0,3.232 -1.064,5.811 -3.25,7.75 -2.19,1.94 -5.119,2.906 -8.75,2.906 -3.83,0 -7.166,-1.35 -10.031,-4.031 -2.865,-2.685 -4.311,-6.236 -4.344,-10.688 h -1.781 v 16.157 h 1.781 c 0.544,-1.53 1.296,-2.313 2.281,-2.313 0.474,0 1.584,0.327 3.313,0.938 4.206,1.496 7.66,2.219 10.375,2.219 4.679,0 8.672,-1.64 12,-4.97 3.321998,-3.328 4.999998,-7.343 4.999998,-12.03 0,-3.635 -1.108,-6.87 -3.281,-9.688 -2.173998,-2.822 -6.401998,-6.105 -12.719998,-9.875 -5.435,-3.266 -8.964,-5.926 -10.593,-8 -1.631,-2.07 -2.469,-4.361 -2.469,-6.875 0,-2.719 0.999,-4.902001 2.969,-6.531001 1.97,-1.63 4.551,-2.438 7.781,-2.438 3.635,0 6.665,1.079 9.063,3.25 2.395,2.175001 3.78,5.190001 4.187,9.063001 h 1.780998 V 21.871596 h -1.655998 c -0.202,0.714 -0.39,1.17 -0.562,1.375 -0.168,0.204 -0.49,0.312 -0.969,0.312 -0.576,0 -1.604,-0.242 -3.063,-0.718 -3.125,-1.053 -6.006,-1.594 -8.656,-1.594 z"
     fill="#003b57"
     id="path3"
     sodipodi:nodetypes="scsccccscscccccscscscccscsccccccscs" />
  <path
     d="m 59.320652,-50.936403 h -99.508 c -6.666,0 -12.124,5.458 -12.124,12.126 v 109.738 c 0,6.668 5.457,12.125 12.126,12.125 h 65.537 c -0.744,-32.61 10.391,-95.894 33.969,-133.988 z"
     fill="#0f80cc"
     id="path4" />
  <path
     d="m 55.704652,-47.398403 h -95.89 c -4.736,0 -8.59,3.852 -8.59,8.588 v 101.73 c 21.718,-8.334 54.3130003,-15.526 76.85,-15.2 4.53,-23.680001 17.84,-70.09 27.63,-95.118 z"
     fill="url(#b)"
     id="path5"
     style="fill:url(#b)" />
  <path
     d="m 82.529652,-54.527403 c -6.815,-6.078 -15.066,-3.636 -23.21,3.591 a 57.556,57.556 0 0 0 -3.615,3.538 c -13.93,14.778 -26.862,42.1529993 -30.88,63.059999 1.566,3.173 2.788,7.223 3.593,10.317 0.206,0.794 0.393,1.539 0.541,2.173 0.354,1.500001 0.544,2.472001 0.544,2.472001 0,0 -0.125,-0.472 -0.637,-1.959 a 122.89,122.89 0 0 0 -0.336,-0.962001 11.157,11.157 0 0 0 -0.214,-0.531 c -0.91,-2.113 -3.423,-6.572 -4.53,-8.513 a 212.622,212.622 0 0 0 -2.482,7.765 c 3.194,5.844001 5.14,15.858001 5.14,15.858001 0,0 -0.168,-0.649 -0.971,-2.914 -0.713,-2.004 -4.261,-8.221 -5.102,-9.675 -1.438,5.309 -2.01,8.893 -1.494,9.765 1,1.691 1.953,4.609 2.79,7.835 1.89,7.269 3.204,16.117 3.204,16.117 0,0 0.042,0.587 0.113,1.49 a 148.078,148.078 0 0 0 0.368,18.152 c 0.626,7.572 1.805,14.077 3.307,17.558003 l 1.02,-0.556 c -2.206,-6.859003 -3.102,-15.847003 -2.71,-26.214003 0.594,-15.845 4.24,-34.953 10.978,-54.870001 11.382,-30.064999 27.175,-54.186999 41.629,-65.706999 -13.174,11.897 -31.004,50.4089993 -36.342,64.669999 -5.976,15.970001 -10.211,30.956001 -12.763,45.315001 4.403,-13.461 18.642,-19.247 18.642,-19.247 0,0 6.984,-8.613 15.145,-20.918001 -4.889,1.115 -12.916,3.024 -15.605,4.154 -3.966,1.663001 -5.035,2.231001 -5.035,2.231001 0,0 12.848,-7.824001 23.87,-11.366001 15.159,-23.8749997 31.674,-57.792999 15.043,-72.628999"
     fill="#003b57"
     id="path6" />
</svg>
